<svg width="132" height="32" viewBox="0 0 132 32" fill="none" xmlns="http://www.w3.org/2000/svg">
<path fill-rule="evenodd" clip-rule="evenodd" d="M33.4541 10.0624V0.5L0 0.526127V31.2512H2.57141V3.13881L30.8827 3.11268V7.44973H7.07139V17.1428L23.837 17.1166V21.5843L6.94282 21.6105V31.2774H33.4541V14.6085H30.8827V28.6647H9.51423V24.2231L26.4084 24.197V14.4778L9.6428 14.504V10.0624H33.4541ZM79.8244 27.7197H84.9767V3.06218H80.1757V20.2756L70.3562 3.06218H64.9529V27.7197H69.754V10.2052L79.8244 27.7197ZM49.2116 7.42826H61.5738V3.09564H44.0927V27.7197H49.2116V17.3816H60.0348V13.0992H49.2116V7.42826ZM100.417 27.7197H89.7945V3.06218H100.417C101.945 3.08448 103.216 3.26292 104.231 3.59748C105.96 4.16625 107.359 5.20898 108.43 6.72568C109.288 7.95242 109.874 9.27953 110.186 10.707C110.499 12.1345 110.655 13.4951 110.655 14.7887C110.655 18.0675 109.997 20.8444 108.681 23.1194C106.896 26.1863 104.142 27.7197 100.417 27.7197ZM104.248 9.35202C103.456 8.01375 101.889 7.34462 99.5471 7.34462H94.7962V23.4372H99.5471C101.978 23.4372 103.673 22.2384 104.632 19.8407C105.157 18.5247 105.419 16.9578 105.419 15.14C105.419 12.6308 105.028 10.7014 104.248 9.35202ZM112.813 27.7197H132V23.3703H119.069L131.966 7.19407V3.06218H113.13V7.42826H125.543L112.813 23.3703V27.7197Z" fill="white"/>
</svg>
